HIERARCHY
ROOT root
{
  OFFSET 0 95.9893 0
  CHANNELS 6 Xposition Yposition Zposition Zrotation Xrotation Yrotation
  JOINT torso_1
  {
    OFFSET 0 5.22546 -1.18466
    CHANNELS 6 Xposition Yposition Zposition Zrotation Xrotation Yrotation
    JOINT torso_2
    {
      OFFSET 0 5.77894 1.10239
      CHANNELS 6 Xposition Yposition Zposition Zrotation Xrotation Yrotation
      JOINT torso_3
      {
        OFFSET -1.0557e-17 6.16289 0.118334
        CHANNELS 6 Xposition Yposition Zposition Zrotation Xrotation Yrotation
        JOINT torso_4
        {
          OFFSET -1.13649e-17 6.69386 -0.456341
          CHANNELS 6 Xposition Yposition Zposition Zrotation Xrotation Yrotation
          JOINT torso_5
          {
            OFFSET -2.02997e-17 7.82529 -1.54945
            CHANNELS 6 Xposition Yposition Zposition Zrotation Xrotation Yrotation
            JOINT torso_6
            {
              OFFSET -2.60628e-17 9.77186 -0.940923
              CHANNELS 6 Xposition Yposition Zposition Zrotation Xrotation Yrotation
              JOINT torso_7
              {
                OFFSET -2.98794e-17 10.8563 1.62248
                CHANNELS 6 Xposition Yposition Zposition Zrotation Xrotation Yrotation
                JOINT neck_1
                {
                  OFFSET -1.32927e-17 4.92478 0.736013
                  CHANNELS 6 Xposition Yposition Zposition Zrotation Xrotation Yrotation
                  JOINT neck_2
                  {
                    OFFSET -1.86396e-17 4.96043 0.433981
                    CHANNELS 6 Xposition Yposition Zposition Zrotation Xrotation Yrotation
                    JOINT head
                    {
                      OFFSET -2.06766e-17 4.97002 0.787173
                      CHANNELS 6 Xposition Yposition Zposition Zrotation Xrotation Yrotation
                      End Site
                      {
                        OFFSET 0 0.1 0
                      }
                    }
                  }
                }
                JOINT l_shoulder
                {
                  OFFSET 1.26863 -7.82717 7.75148
                  CHANNELS 6 Xposition Yposition Zposition Zrotation Xrotation Yrotation
                  JOINT l_up_arm
                  {
                    OFFSET 13.3291 3.34342 -3.36319
                    CHANNELS 6 Xposition Yposition Zposition Zrotation Xrotation Yrotation
                    JOINT l_low_arm
                    {
                      OFFSET 30.0522 0.0615366 0.141
                      CHANNELS 6 Xposition Yposition Zposition Zrotation Xrotation Yrotation
                      JOINT l_hand
                      {
                        OFFSET 24.9344 0.0510561 0.116988
                        CHANNELS 6 Xposition Yposition Zposition Zrotation Xrotation Yrotation
                        End Site
                        {
                          OFFSET 0.1 0 0
                        }
                      }
                    }
                  }
                }
                JOINT r_shoulder
                {
                  OFFSET -1.26863 -7.82715 7.75138
                  CHANNELS 6 Xposition Yposition Zposition Zrotation Xrotation Yrotation
                  JOINT r_up_arm
                  {
                    OFFSET -13.3291 3.34342 -3.36319
                    CHANNELS 6 Xposition Yposition Zposition Zrotation Xrotation Yrotation
                    JOINT r_low_arm
                    {
                      OFFSET -30.0522 0.0615366 0.141
                      CHANNELS 6 Xposition Yposition Zposition Zrotation Xrotation Yrotation
                      JOINT r_hand
                      {
                        OFFSET -24.9344 0.0510559 0.116988
                        CHANNELS 6 Xposition Yposition Zposition Zrotation Xrotation Yrotation
                        End Site
                        {
                          OFFSET -0.1 0 0
                        }
                      }
                    }
                  }
                }
              }
            }
          }
        }
      }
    }
  }
  JOINT l_up_leg
  {
    OFFSET 9.50369 -4.32711 2.09145
    CHANNELS 6 Xposition Yposition Zposition Zrotation Xrotation Yrotation
    JOINT l_low_leg
    {
      OFFSET -0.876987 -39.8926 -0.674123
      CHANNELS 6 Xposition Yposition Zposition Zrotation Xrotation Yrotation
      JOINT l_foot
      {
        OFFSET -2.39345 -41.5694 -6.22357
        CHANNELS 6 Xposition Yposition Zposition Zrotation Xrotation Yrotation
        JOINT l_toes
        {
          OFFSET 0.801613 -10.1701 12.8571
          CHANNELS 6 Xposition Yposition Zposition Zrotation Xrotation Yrotation
          End Site
          {
            OFFSET 0 0 0.1
          }
        }
      }
    }
  }
  JOINT r_up_leg
  {
    OFFSET -9.50369 -4.32711 2.09145
    CHANNELS 6 Xposition Yposition Zposition Zrotation Xrotation Yrotation
    JOINT r_low_leg
    {
      OFFSET 0.876987 -39.8926 -0.674123
      CHANNELS 6 Xposition Yposition Zposition Zrotation Xrotation Yrotation
      JOINT r_foot
      {
        OFFSET 2.39345 -41.5694 -6.22357
        CHANNELS 6 Xposition Yposition Zposition Zrotation Xrotation Yrotation
        JOINT r_toes
        {
          OFFSET -0.801613 -10.1701 12.8571
          CHANNELS 6 Xposition Yposition Zposition Zrotation Xrotation Yrotation
          End Site
          {
            OFFSET 0 0 0.1
          }
        }
      }
    }
  }
}
MOTION
Frames: 4
Frame Time: 0.02
13.7824 95.209 -64.4507 -2.08454 -1.38709 -30.1705 0 5.22546 -1.18466 0.0490222 -0.843887 0.65242 0 5.77894 1.10239 -0.0201314 -0.880201 0.608492 -1.0557e-17 6.16289 0.118334 -0.00755138 -0.899093 0.61877 -1.13649e-17 6.69386 -0.456341 0.021224 -1.28533 0.632014 -2.02997e-17 7.82529 -1.54945 0.110136 -2.02671 0.502081 -2.60628e-17 9.77186 -0.940923 0.30376 -2.64687 0.435757 -2.98794e-17 10.8563 1.62248 -0.0066269 0.170403 -0.00755424 -1.32927e-17 4.92478 0.736013 -0.43099 7.72117 4.9578 -1.86396e-17 4.96043 0.433981 -1.61819 -3.84242 2.33933 -2.06766e-17 4.97002 0.787173 -3.38253 -1.17332 0.777301 1.26863 -7.82717 7.75148 15.866 -1.21542 2.25355 13.3291 3.34342 -3.36319 -71.7729 -4.85859 -22.6346 30.0522 0.0615366 0.141 11.9289 -13.5249 -97.8277 24.9344 0.0510561 0.116988 3.86635 9.23995 -4.51747 -1.26863 -7.82715 7.75138 -18.9503 -0.310619 -2.91507 -13.3291 3.34342 -3.36319 66.5766 14.4858 34.5676 -30.0522 0.0615366 0.141 -12.0201 -11.4083 87.5808 -24.9344 0.0510559 0.116988 -6.1583 -9.41821 5.63146 9.50369 -4.32711 2.09145 6.83831 -4.73779 -23.2489 -0.876987 -39.8926 -0.674123 -3.39589 12.5573 0.153589 -2.39345 -41.5694 -6.22357 -4.81259 -5.49881 16.6192 0.801613 -10.1701 12.8571 1.2424e-15 -7.45443e-16 -3.72721e-17 -9.50369 -4.32711 2.09145 -7.04119 7.50259 6.71825 0.876987 -39.8926 -0.674123 0.970306 3.62368 0.0325738 2.39345 -41.5694 -6.22357 8.00012 -2.93669 -16.6635 -0.801613 -10.1701 12.8571 1.98785e-16 -5.96354e-16 -1.27719e-14 
14.4309 95.2065 -64.053 -1.97287 -0.810146 -29.9466 0 5.22546 -1.18466 -0.0908919 -0.792858 0.671855 0 5.77894 1.10239 -0.151251 -0.855542 0.605387 -1.0557e-17 6.16289 0.118334 -0.117183 -0.900572 0.606431 -1.13649e-17 6.69386 -0.456341 -0.0671382 -1.31927 0.612563 -2.02997e-17 7.82529 -1.54945 0.0527112 -2.08297 0.498164 -2.60628e-17 9.77186 -0.940923 0.272855 -2.75086 0.436537 -2.98794e-17 10.8563 1.62248 -0.0072525 0.168158 -0.00744755 -1.32927e-17 4.92478 0.736013 -0.426783 7.16503 5.08888 -1.86396e-17 4.96043 0.433981 -1.72425 -3.91919 2.39465 -2.06766e-17 4.97002 0.787173 -3.38223 -1.08864 0.582525 1.26863 -7.82717 7.75148 15.6896 -1.13359 2.04907 13.3291 3.34342 -3.36319 -71.3231 -5.00501 -22.1547 30.0522 0.0615366 0.141 11.9678 -13.2044 -96.2628 24.9344 0.0510561 0.116988 3.87675 8.73818 -4.8517 -1.26863 -7.82715 7.75138 -18.5739 -0.286373 -2.70754 -13.3291 3.34342 -3.36319 66.2139 15.1653 34.6136 -30.0522 0.0615366 0.141 -12.011 -11.2436 86.7876 -24.9344 0.0510559 0.116988 -6.18823 -9.03167 5.75308 9.50369 -4.32711 2.09145 6.49983 -5.53217 -23.654 -0.876987 -39.8926 -0.674123 -3.52464 13.0205 0.173998 -2.39345 -41.5694 -6.22357 -4.41385 -5.92128 16.5853 0.801613 -10.1701 12.8571 4.96962e-17 -7.95139e-16 1.2424e-17 -9.50369 -4.32711 2.09145 -7.29642 7.21117 6.00903 0.876987 -39.8926 -0.674123 0.829503 3.098 0.0316539 2.39345 -41.5694 -6.22357 8.4583 -2.41597 -16.653 -0.801613 -10.1701 12.8571 -2.18663e-15 -4.96962e-16 -1.26725e-14 
15.0835 95.2005 -63.7598 -1.84086 -0.187974 -29.6823 0 5.22546 -1.18466 -0.269308 -0.752418 0.696217 0 5.77894 1.10239 -0.319226 -0.833139 0.602702 -1.0557e-17 6.16289 0.118334 -0.258329 -0.884868 0.593981 -1.13649e-17 6.69386 -0.456341 -0.182015 -1.30546 0.5927 -2.02997e-17 7.82529 -1.54945 -0.0208152 -2.07851 0.499121 -2.60628e-17 9.77186 -0.940923 0.234999 -2.78225 0.443508 -2.98794e-17 10.8563 1.62248 -0.00781638 0.164505 -0.00735902 -1.32927e-17 4.92478 0.736013 -0.4087 6.501 5.17082 -1.86396e-17 4.96043 0.433981 -1.80166 -4.07326 2.43062 -2.06766e-17 4.97002 0.787173 -3.31602 -1.05906 0.378925 1.26863 -7.82717 7.75148 15.4345 -1.08539 1.81203 13.3291 3.34342 -3.36319 -70.6281 -5.16314 -21.8847 30.0522 0.0615366 0.141 11.997 -12.8933 -94.7498 24.9344 0.0510561 0.116988 3.88119 8.41809 -5.08891 -1.26863 -7.82715 7.75138 -18.063 -0.312931 -2.46807 -13.3291 3.34342 -3.36319 65.8363 15.6787 34.8085 -30.0522 0.0615366 0.141 -11.9998 -11.0831 86.0139 -24.9344 0.0510559 0.116988 -6.20046 -8.60295 5.77717 9.50369 -4.32711 2.09145 6.19303 -6.47858 -23.9312 -0.876987 -39.8926 -0.674123 -3.66821 13.5352 0.197979 -2.39345 -41.5694 -6.22357 -4.0365 -6.28006 16.5511 0.801613 -10.1701 12.8571 -7.45443e-16 -8.32411e-16 4.96962e-17 -9.50369 -4.32711 2.09145 -7.51569 6.78315 5.23389 0.876987 -39.8926 -0.674123 0.709134 2.64844 0.0298416 2.39345 -41.5694 -6.22357 8.8572 -1.91771 -16.6161 -0.801613 -10.1701 12.8571 9.93923e-16 -6.33626e-16 -1.28092e-14 
15.7136 95.1619 -63.5866 -1.70675 0.608582 -29.5249 0 5.22546 -1.18466 -0.470596 -0.719258 0.739918 0 5.77894 1.10239 -0.511899 -0.813099 0.617685 -1.0557e-17 6.16289 0.118334 -0.421068 -0.858074 0.599555 -1.13649e-17 6.69386 -0.456341 -0.316419 -1.25941 0.592425 -2.02997e-17 7.82529 -1.54945 -0.103484 -2.03155 0.521848 -2.60628e-17 9.77186 -0.940923 0.198675 -2.76306 0.470486 -2.98794e-17 10.8563 1.62248 -0.00824101 0.159981 -0.00721469 -1.32927e-17 4.92478 0.736013 -0.384598 5.7681 5.21561 -1.86396e-17 4.96043 0.433981 -1.83648 -4.30276 2.45175 -2.06766e-17 4.97002 0.787173 -3.19518 -1.15181 0.185934 1.26863 -7.82717 7.75148 15.1843 -1.05574 1.57076 13.3291 3.34342 -3.36319 -69.7108 -5.41432 -21.911 30.0522 0.0615366 0.141 12.0176 -12.5815 -93.239 24.9344 0.0510561 0.116988 3.85964 8.2136 -5.14833 -1.26863 -7.82715 7.75138 -17.4796 -0.36488 -2.22397 -13.3291 3.34342 -3.36319 65.4368 15.9584 35.3508 -30.0522 0.0615366 0.141 -11.9853 -10.9099 85.1791 -24.9344 0.0510559 0.116988 -6.19392 -8.30566 5.68923 9.50369 -4.32711 2.09145 6.02287 -7.68729 -24.0819 -0.876987 -39.8926 -0.674123 -3.85051 14.1859 0.230282 -2.39345 -41.5694 -6.22357 -3.65643 -6.74712 16.5238 0.801613 -10.1701 12.8571 1.2424e-15 -7.45443e-16 -3.72721e-17 -9.50369 -4.32711 2.09145 -7.6169 6.07382 4.61922 0.876987 -39.8926 -0.674123 0.618646 2.31042 0.0278569 2.39345 -41.5694 -6.22357 9.16026 -1.57295 -16.5448 -0.801613 -10.1701 12.8571 -3.77691e-15 -4.22417e-16 -1.26104e-14 
